<?xml version="1.0"?>
<svg xmlns="http://www.w3.org/2000/svg" xmlns:xlink="http://www.w3.org/1999/xlink" xmlns:svgjs="http://svgjs.com/svgjs" version="1.1" width="512" height="512" x="0" y="0" viewBox="0 0 512 512" style="enable-background:new 0 0 512 512" xml:space="preserve"><g><g xmlns="http://www.w3.org/2000/svg"><path d="m256 150c41.355 0 75-33.645 75-75s-33.645-75-75-75-75 33.645-75 75 33.645 75 75 75zm0-135c33.084 0 60 26.916 60 60s-26.916 60-60 60-60-26.916-60-60 26.916-60 60-60z" fill="#ffffff" data-original="#000000" style=""/><path d="m500.648 46.633c-7.317-7.12-16.99-10.882-27.197-10.606-17.582.482-32.297 13.625-35.706 30.606-17.463 3.191-30.745 18.508-30.745 36.879v95.066c0 4.143 3.357 7.5 7.5 7.5s7.5-3.357 7.5-7.5v-95.066c0-9.777 6.271-18.114 15-21.21v146.295c-14.674-10.935-36.024-9.528-49.458 3.906l-104.272 104.272c-12.748 12.749-19.77 29.7-19.77 47.729v119.996c0 4.143 3.357 7.5 7.5 7.5h201.953c2.224 0 4.333-.987 5.758-2.694 1.426-1.708 2.02-3.959 1.621-6.147l-5.455-30c-.648-3.566-3.754-6.158-7.379-6.158h-23.741l-6.37-35.034 68.194-112.614c.068-.112.134-.227.196-.343 4.07-7.599 6.222-16.171 6.222-24.792v-220.706c.001-10.211-4.03-19.757-11.351-26.879zm-36.681 450.367h-185.467v-15h182.739zm33.033-202.783c0 6.095-1.506 12.156-4.355 17.542l-69.56 114.868c-.949 1.566-1.292 3.425-.964 5.227l6.39 35.146h-150.011v-82.495c0-14.022 5.461-27.207 15.377-37.123l104.272-104.272c8.777-8.78 23.047-9.176 31.804-.887 4.459 4.222 6.961 9.919 7.045 16.044.084 6.128-2.256 11.888-6.588 16.22l-104.714 104.714c-2.929 2.93-2.929 7.678 0 10.607 2.93 2.928 7.678 2.928 10.607 0l104.714-104.714c7.097-7.098 10.977-16.499 10.974-26.517.009.001.009-184.441.009-184.441 0-12.415 9.808-22.784 21.862-23.115 6.141-.169 11.936 2.092 16.326 6.363 4.393 4.273 6.812 10.001 6.812 16.128z" fill="#ffffff" data-original="#000000" style=""/><path d="m383.173 211.675c-2.973-26.609-25.401-46.675-52.168-46.675h-150.009c-26.768 0-49.195 20.065-52.168 46.674-.253 2.267.538 4.524 2.15 6.137 33.395 33.395 77.795 51.786 125.022 51.786 47.225 0 91.629-18.393 125.022-51.785 1.612-1.613 2.404-3.871 2.151-6.137zm-127.173 42.922c-41.957 0-81.477-15.862-111.71-44.748 3.573-17.245 18.776-29.849 36.706-29.849h150.009c17.93 0 33.132 12.604 36.705 29.849-30.233 28.886-69.753 44.748-111.71 44.748z" fill="#ffffff" data-original="#000000" style=""/><path d="m248.5 384.505c0-18.029-7.021-34.98-19.77-47.73l-104.272-104.272c-13.436-13.436-34.785-14.841-49.458-3.906v-146.295c8.729 3.096 15 11.433 15 21.21v95.066c0 4.143 3.358 7.5 7.5 7.5s7.5-3.357 7.5-7.5v-95.066c0-18.371-13.282-33.687-30.745-36.879-3.41-16.981-18.124-30.125-35.707-30.606-10.228-.286-19.88 3.486-27.197 10.606-7.32 7.122-11.351 16.668-11.351 26.879v220.705c0 8.621 2.151 17.193 6.222 24.792.062.116.127.23.195.343l68.195 112.614-6.369 35.034h-23.741c-3.625 0-6.73 2.592-7.379 6.158l-5.455 30c-.398 2.188.196 4.44 1.621 6.147s3.534 2.694 5.758 2.694h201.953c4.142 0 7.5-3.357 7.5-7.5v-29.91c0-.03 0-.06 0-.09s0-.06 0-.09zm-15 112.495h-185.466l2.727-15h182.739zm0-30h-150.012l6.39-35.146c.328-1.802-.015-3.66-.963-5.227l-69.56-114.868c-2.85-5.386-4.355-11.447-4.355-17.542v-220.705c0-6.127 2.419-11.854 6.812-16.128 4.391-4.271 10.182-6.529 16.326-6.363 12.054.331 21.862 10.7 21.862 23.115v184.442c.005 10.019 3.885 19.419 10.983 26.517l104.713 104.714c2.928 2.928 7.677 2.928 10.606 0 2.929-2.93 2.929-7.678 0-10.607l-104.712-104.715c-4.332-4.332-6.672-10.092-6.588-16.22.084-6.125 2.586-11.822 7.045-16.044 8.757-8.291 23.024-7.893 31.804.887l104.272 104.271c9.916 9.917 15.377 23.102 15.376 37.124v82.495z" fill="#ffffff" data-original="#000000" style=""/></g></g></svg>
