<?xml version="1.0"?>
<svg xmlns="http://www.w3.org/2000/svg" xmlns:xlink="http://www.w3.org/1999/xlink" xmlns:svgjs="http://svgjs.com/svgjs" version="1.1" width="512" height="512" x="0" y="0" viewBox="0 0 512 512" style="enable-background:new 0 0 512 512" xml:space="preserve"><g><g xmlns="http://www.w3.org/2000/svg"><path d="m467 82c-24.813 0-45 20.187-45 45v96.208c-6.785-3.948-14.515-6.062-22.574-6.062-12.02 0-23.32 4.682-31.819 13.181l-68.493 68.493c-14.166 14.166-21.967 32.999-21.967 53.032v145.148c0 8.284 6.716 15 15 15h124.853c8.284 0 15-6.716 15-15v-65.458l67.403-101.105c8.241-12.36 12.597-26.747 12.597-41.604v-161.833c0-24.813-20.187-45-45-45zm15 206.833c0 8.914-2.613 17.546-7.558 24.962l-69.923 104.885c-1.643 2.464-2.519 5.359-2.519 8.32v55h-94.853v-130.147c0-12.02 4.681-23.319 13.18-31.819l68.493-68.493c2.833-2.833 6.6-4.394 10.606-4.394 4.007 0 7.773 1.561 10.607 4.394 5.849 5.849 5.849 15.365 0 21.214l-53.64 53.64c-5.858 5.857-5.858 15.355 0 21.213 5.857 5.857 15.355 5.857 21.213 0l58.285-58.284c10.388-10.389 16.109-24.2 16.109-38.891v-123.433c0-8.271 6.729-15 15-15s15 6.729 15 15z" fill="#ffffff" data-original="#000000" style=""/><path d="m144.394 230.327c-8.5-8.499-19.8-13.181-31.82-13.181-8.059 0-15.789 2.114-22.574 6.062v-96.208c0-24.813-20.187-45-45-45s-45 20.187-45 45v161.833c0 14.856 4.356 29.243 12.596 41.603l67.404 101.106v65.458c0 8.284 6.716 15 15 15h124.853c8.284 0 15-6.716 15-15v-145.147c0-20.033-7.801-38.866-21.967-53.032zm-36.913 188.353-69.923-104.886c-4.945-7.415-7.558-16.047-7.558-24.961v-161.833c0-8.271 6.729-15 15-15s15 6.729 15 15v123.432c0 14.69 5.721 28.502 16.109 38.891l58.284 58.284c5.857 5.857 15.355 5.857 21.213 0s5.858-15.355 0-21.213l-53.644-53.644c-5.844-5.849-5.843-15.362.004-21.209 2.833-2.833 6.6-4.394 10.607-4.394 4.006 0 7.773 1.561 10.606 4.394l68.493 68.493c8.5 8.5 13.18 19.8 13.18 31.819v130.147h-94.852v-55c0-2.961-.876-5.856-2.519-8.32z" fill="#ffffff" data-original="#000000" style=""/><path d="m401 81.913c0-21.88-8.521-42.45-23.992-57.921s-36.042-23.992-57.922-23.992-42.45 8.521-57.921 23.992l-5.165 5.165-5.165-5.165c-15.471-15.471-36.042-23.992-57.921-23.992s-42.45 8.521-57.921 23.992c-15.472 15.471-23.993 36.041-23.993 57.921s8.521 42.45 23.992 57.922l110.401 110.401c2.929 2.929 6.768 4.394 10.606 4.394s7.678-1.465 10.606-4.394l110.402-110.401c15.472-15.472 23.993-36.042 23.993-57.922zm-45.205 36.709-99.795 99.795-99.794-99.795c-9.806-9.806-15.206-22.842-15.206-36.709 0-13.866 5.4-26.902 15.206-36.708 9.805-9.806 22.841-15.205 36.708-15.205s26.903 5.399 36.708 15.205l15.771 15.771c2.813 2.813 6.628 4.394 10.606 4.394s7.793-1.58 10.606-4.394l15.772-15.771c9.807-9.806 22.843-15.205 36.709-15.205s26.903 5.399 36.708 15.205c9.806 9.806 15.206 22.842 15.206 36.708 0 13.867-5.4 26.903-15.205 36.709z" fill="#ffffff" data-original="#000000" style=""/></g></g></svg>
