<?xml version="1.0" encoding="UTF-8" standalone="no"?>
<svg
   xmlns:dc="http://purl.org/dc/elements/1.1/"
   xmlns:cc="http://creativecommons.org/ns#"
   xmlns:rdf="http://www.w3.org/1999/02/22-rdf-syntax-ns#"
   xmlns:svg="http://www.w3.org/2000/svg"
   xmlns="http://www.w3.org/2000/svg"
   xmlns:xlink="http://www.w3.org/1999/xlink"
   xmlns:sodipodi="http://sodipodi.sourceforge.net/DTD/sodipodi-0.dtd"
   xmlns:inkscape="http://www.inkscape.org/namespaces/inkscape"
   id="outline"
   height="512"
   viewBox="0 0 512 512"
   width="512"
   version="1.1"
   sodipodi:docname="feliz-ano-nuevo.svg"
   inkscape:version="1.0.1 (1.0.1+r73)">
  <metadata
     id="metadata59">
    <rdf:RDF>
      <cc:Work
         rdf:about="">
        <dc:format>image/svg+xml</dc:format>
        <dc:type
           rdf:resource="http://purl.org/dc/dcmitype/StillImage" />
      </cc:Work>
    </rdf:RDF>
  </metadata>
  <defs
     id="defs57" />
  <sodipodi:namedview
     pagecolor="#ffffff"
     bordercolor="#666666"
     borderopacity="1"
     objecttolerance="10"
     gridtolerance="10"
     guidetolerance="10"
     inkscape:pageopacity="0"
     inkscape:pageshadow="2"
     inkscape:window-width="1366"
     inkscape:window-height="740"
     id="namedview55"
     showgrid="false"
     inkscape:zoom="0.56835938"
     inkscape:cx="762.21184"
     inkscape:cy="256.44976"
     inkscape:window-x="0"
     inkscape:window-y="0"
     inkscape:window-maximized="1"
     inkscape:current-layer="outline" />
  <linearGradient
     id="linear-gradient"
     gradientUnits="userSpaceOnUse"
     x1="484.474"
     x2="-17.027"
     y1="-31.116"
     y2="470.385">
    <stop
       offset="0"
       stop-color="#f7941e"
       id="stop2" />
    <stop
       offset="1"
       stop-color="#ee2a7b"
       id="stop4" />
  </linearGradient>
  <linearGradient
     id="linear-gradient-2"
     x1="558.35"
     x2="56.849"
     xlink:href="#linear-gradient"
     y1="42.76"
     y2="544.261" />
  <linearGradient
     id="linear-gradient-3"
     x1="453.295"
     x2="-48.206"
     xlink:href="#linear-gradient"
     y1="-62.295"
     y2="439.206" />
  <linearGradient
     id="linear-gradient-4"
     x1="521.795"
     x2="20.294"
     xlink:href="#linear-gradient"
     y1="6.205"
     y2="507.706" />
  <linearGradient
     id="linear-gradient-5"
     x1="549.795"
     x2="48.294"
     xlink:href="#linear-gradient"
     y1="34.205"
     y2="535.706" />
  <linearGradient
     id="linear-gradient-6"
     x1="621.795"
     x2="120.294"
     xlink:href="#linear-gradient"
     y1="106.205"
     y2="607.706" />
  <linearGradient
     id="linear-gradient-7"
     x1="561.795"
     x2="60.294"
     xlink:href="#linear-gradient"
     y1="46.205"
     y2="547.706" />
  <linearGradient
     id="linear-gradient-8"
     x1="522.166"
     x2="20.664"
     xlink:href="#linear-gradient"
     y1="6.576"
     y2="508.077" />
  <linearGradient
     id="linear-gradient-9"
     x1="603.065"
     x2="101.564"
     xlink:href="#linear-gradient"
     y1="87.475"
     y2="588.976" />
  <linearGradient
     id="linear-gradient-10"
     x1="507.627"
     x2="6.126"
     xlink:href="#linear-gradient"
     y1="-7.962"
     y2="493.539" />
  <linearGradient
     id="linear-gradient-11"
     x1="447.795"
     x2="-53.706"
     xlink:href="#linear-gradient"
     y1="-67.795"
     y2="433.706" />
  <linearGradient
     id="linear-gradient-12"
     x1="591.795"
     x2="90.294"
     xlink:href="#linear-gradient"
     y1="76.205"
     y2="577.706" />
  <linearGradient
     id="linear-gradient-13"
     x1="489.795"
     x2="-11.706"
     xlink:href="#linear-gradient"
     y1="-25.795"
     y2="475.706" />
  <linearGradient
     id="linear-gradient-14"
     x1="513.795"
     x2="12.294"
     xlink:href="#linear-gradient"
     y1="-1.795"
     y2="499.706" />
  <linearGradient
     id="linear-gradient-15"
     x1="629.795"
     x2="128.294"
     xlink:href="#linear-gradient"
     y1="114.205"
     y2="615.706" />
  <linearGradient
     id="linear-gradient-16"
     x1="516.142"
     x2="14.641"
     xlink:href="#linear-gradient"
     y1=".552"
     y2="502.053" />
  <path
     d="m139.79 296a7.994 7.994 0 0 0 7.793 3.953l18.819-2.046 7.637 17.321a8 8 0 0 0 14.641 0l7.637-17.321 18.818 2.046a8 8 0 0 0 7.32-12.679l-11.182-15.274 11.182-15.274a8 8 0 0 0 -7.32-12.679l-18.818 2.046-7.637-17.321a8 8 0 0 0 -14.641 0l-7.639 17.321-18.819-2.046a8 8 0 0 0 -7.32 12.679l11.183 15.274-11.182 15.274a8 8 0 0 0 -.472 8.726zm28.024-28.726-3.924-5.36 6.6.718a8 8 0 0 0 8.186-4.726l2.68-6.078 2.68 6.078a8 8 0 0 0 8.186 4.726l6.6-.718-3.924 5.36a8 8 0 0 0 0 9.451l3.924 5.36-6.6-.718a8.01 8.01 0 0 0 -8.186 4.726l-2.68 6.078-2.68-6.078a7.994 7.994 0 0 0 -8.186-4.726l-6.6.718 3.924-5.36a8 8 0 0 0 0-9.451z"
     fill="url(#linear-gradient)"
     id="path22"
     style="fill:#ffffff" />
  <path
     d="m388.684 235.914a15.81 15.81 0 0 0 -15.586-7.906l-18.03 1.96-7.316-16.595a16 16 0 0 0 -29.281 0l-7.316 16.595-18.03-1.96a16 16 0 0 0 -14.641 25.357l10.716 14.635-10.713 14.635a16 16 0 0 0 14.641 25.357l18.03-1.96 7.316 16.595a16 16 0 0 0 29.281 0l7.316-16.595 18.03 1.96a16 16 0 0 0 14.641-25.357l-10.717-14.635 10.713-14.635a15.8 15.8 0 0 0 .946-17.451zm-28.028 36.812 14.167 19.359-23.847-2.593a8.006 8.006 0 0 0 -8.186 4.726l-9.682 21.949-9.678-21.949a7.994 7.994 0 0 0 -8.186-4.726l-23.844 2.589 14.169-19.355a8 8 0 0 0 0-9.451l-14.169-19.36 23.847 2.593a8 8 0 0 0 8.186-4.726l9.682-21.949 9.678 21.949a8 8 0 0 0 8.186 4.726l23.849-2.589-14.169 19.355a8 8 0 0 0 -.004 9.452z"
     fill="url(#linear-gradient-2)"
     id="path24"
     style="fill:#ffffff" />
  <path
     d="m192 183h16v16h-16z"
     fill="url(#linear-gradient-3)"
     id="path26"
     style="fill:#ffffff" />
  <path
     d="m184 328h16v16h-16z"
     fill="url(#linear-gradient-4)"
     id="path28"
     style="fill:#ffffff" />
  <path
     d="m376 192h16v16h-16z"
     fill="url(#linear-gradient-5)"
     id="path30"
     style="fill:#ffffff" />
  <path
     d="m368 344h16v16h-16z"
     fill="url(#linear-gradient-6)"
     id="path32"
     style="fill:#ffffff" />
  <path
     d="m252 320a36 36 0 1 0 36 36 36.041 36.041 0 0 0 -36-36zm0 56a20 20 0 1 1 20-20 20.023 20.023 0 0 1 -20 20z"
     fill="url(#linear-gradient-7)"
     id="path34"
     style="fill:#ffffff" />
  <path
     d="m123.578 304.845-7.165 14.306c.611.308 61.389 31.552 84 99.379l15.18-5.06c-24.767-74.289-89.281-107.258-92.015-108.625z"
     fill="url(#linear-gradient-8)"
     id="path36"
     style="fill:#ffffff" />
  <path
     d="m288 416 16 .056c0-.224.574-22.8 22.86-59.94l-13.721-8.232c-24.853 41.424-25.139 67.046-25.139 68.116z"
     fill="url(#linear-gradient-9)"
     id="path38"
     style="fill:#ffffff" />
  <path
     d="m240.062 303.008 15.877 1.984c8.479-67.827-25.681-94.3-27.139-95.392l-9.654 12.759c1.154.897 28.168 22.63 20.916 80.649z"
     fill="url(#linear-gradient-10)"
     id="path40"
     style="fill:#ffffff" />
  <path
     d="m98 266h16v16h-16z"
     fill="url(#linear-gradient-11)"
     id="path42"
     style="fill:#ffffff" />
  <path
     d="m248 400h16v24h-16z"
     fill="url(#linear-gradient-12)"
     id="path44"
     style="fill:#ffffff" />
  <path
     d="m261.657 213.657 6.343-6.343 6.343 6.343 11.314-11.314-6.343-6.343 6.343-6.343-11.314-11.314-6.343 6.343-6.343-6.343-11.314 11.314 6.343 6.343-6.343 6.343z"
     fill="url(#linear-gradient-13)"
     id="path46"
     style="fill:#ffffff" />
  <path
     d="m138.343 362.343-6.343 6.343-6.343-6.343-11.314 11.314 6.343 6.343-6.343 6.343 11.314 11.314 6.343-6.343 6.343 6.343 11.314-11.314-6.343-6.343 6.343-6.343z"
     fill="url(#linear-gradient-14)"
     id="path48"
     style="fill:#ffffff" />
  <path
     d="m362.343 370.343-6.343 6.343-6.343-6.343-11.314 11.314 6.343 6.343-6.343 6.343 11.314 11.314 6.343-6.343 6.343 6.343 11.314-11.314-6.343-6.343 6.343-6.343z"
     fill="url(#linear-gradient-15)"
     id="path50"
     style="fill:#ffffff" />
  <path
     d="m504 456c-18.452 0-40-12.571-40-48v-344a24.027 24.027 0 0 0 -24-24h-48v-16a24.027 24.027 0 0 0 -24-24h-32a24.027 24.027 0 0 0 -24 24v16h-152v-16a24.027 24.027 0 0 0 -24-24h-32a24.027 24.027 0 0 0 -24 24v16h-56a24.027 24.027 0 0 0 -24 24v424a24.027 24.027 0 0 0 24 24h416a24.027 24.027 0 0 0 24-24v-16h40a8 8 0 0 0 0-16zm-176-432a8.009 8.009 0 0 1 8-8h32a8.009 8.009 0 0 1 8 8v16h-48zm-232 0a8.009 8.009 0 0 1 8-8h32a8.009 8.009 0 0 1 8 8v16h-48zm-16 32h64v8.228a36 36 0 1 0 16 1.837v-10.065h216v8.228a36 36 0 1 0 16 1.837v-10.065h48a8.009 8.009 0 0 1 8 8v80h-392v-80a8.009 8.009 0 0 1 8-8zm80 28.038a19.967 19.967 0 1 1 -16-3.638v23.6h16zm232 0a19.967 19.967 0 1 1 -16-3.638v23.6h16zm56 403.962a8.009 8.009 0 0 1 -8 8h-416a8.009 8.009 0 0 1 -8-8v-424a8.009 8.009 0 0 1 8-8h17.376a23.884 23.884 0 0 0 -1.376 8v344a64.073 64.073 0 0 0 64 64h344zm-344-32a48.054 48.054 0 0 1 -48-48v-248h392v248c0 17.385 5.03 33.227 14.163 44.605q1.426 1.776 2.961 3.395z"
     fill="url(#linear-gradient-16)"
     id="path52"
     style="fill:#ffffff" />
</svg>
